<?xml version="1.0" standalone="no"?>
<!DOCTYPE svg PUBLIC "-//W3C//DTD SVG 20010904//EN"
 "http://www.w3.org/TR/2001/REC-SVG-20010904/DTD/svg10.dtd">
<svg version="1.0" xmlns="http://www.w3.org/2000/svg"
 width="165.000000pt" height="171.000000pt" viewBox="0 0 165.000000 171.000000"
 preserveAspectRatio="xMidYMid meet">
<metadata>
Created by potrace 1.10, written by Peter Selinger 2001-2011
</metadata>
<g transform="translate(0.000000,171.000000) scale(0.100000,-0.100000)"
fill="#000000" stroke="none">
<path d="M310 1699 c-14 -6 -42 -29 -62 -52 -27 -30 -37 -37 -38 -24 0 23 -15
22 -40 -3 -11 -11 -23 -20 -26 -20 -14 0 -76 -72 -88 -103 -22 -51 -4 -150 34
-194 17 -18 30 -38 30 -42 0 -5 9 -11 20 -14 11 -3 20 -12 20 -20 0 -9 9 -19
20 -22 11 -3 20 -9 21 -13 0 -4 2 -15 4 -25 2 -11 -10 -31 -31 -49 -19 -17
-34 -37 -34 -45 0 -7 -7 -16 -15 -19 -8 -4 -15 -12 -15 -20 0 -8 -11 -31 -23
-52 -55 -86 -92 -261 -52 -246 8 3 14 18 14 32 0 44 4 62 13 62 4 0 8 11 8 25
0 29 37 103 63 127 10 9 16 22 12 28 -3 5 1 13 9 16 9 3 13 11 9 17 -4 7 0 8
12 3 16 -6 16 -4 4 11 -9 11 -10 14 -1 9 7 -4 12 -2 12 6 0 7 11 26 24 43 19
23 22 35 15 58 -7 25 -6 28 9 22 22 -8 8 5 -20 19 -13 6 -23 20 -23 31 0 13
-6 19 -17 17 -9 -1 -19 6 -23 18 -4 11 -10 18 -15 15 -4 -3 -10 2 -14 10 -3 8
0 15 6 15 6 0 8 3 4 8 -4 4 -13 7 -19 7 -6 0 -16 21 -23 48 -6 26 -9 47 -5 47
4 0 7 9 8 20 1 11 -2 20 -7 20 -10 0 31 64 43 67 4 2 19 14 32 29 18 20 35 26
64 27 22 0 38 4 35 8 -2 4 0 10 6 14 6 4 7 11 4 17 -4 6 -2 8 4 4 6 -3 13 -2
17 4 4 6 11 7 17 4 6 -4 8 -2 4 4 -3 6 2 13 11 16 16 4 80 2 93 -4 6 -3 22 -6
36 -8 12 -2 59 -72 69 -103 5 -13 2 -25 -6 -31 -11 -8 -10 -8 4 -4 20 6 37
-22 19 -33 -7 -4 -8 -12 -2 -21 9 -13 10 -13 11 0 0 8 5 2 9 -13 5 -16 7 -37
5 -49 -3 -16 0 -19 15 -15 11 3 23 0 27 -5 3 -6 1 -8 -5 -4 -6 3 -13 2 -17 -4
-4 -6 -11 -7 -17 -4 -7 4 -8 2 -4 -5 6 -8 12 -9 20 -2 7 6 16 7 20 3 14 -13
53 -9 52 6 -1 8 5 17 12 19 8 3 10 -1 5 -14 -6 -16 -5 -16 10 -4 9 7 17 19 17
25 0 7 9 12 20 13 11 1 27 9 36 17 9 9 19 14 24 11 5 -3 11 1 13 7 4 10 6 10
6 0 1 -15 61 51 61 67 0 15 -11 14 -52 -4 -19 -8 -43 -26 -52 -40 -10 -14 -26
-25 -39 -25 -13 0 -40 -9 -62 -20 -22 -11 -44 -20 -50 -20 -5 0 -11 20 -12 44
-1 24 -9 58 -17 74 -9 17 -16 40 -16 50 0 11 -6 25 -14 31 -8 6 -19 24 -25 39
-14 34 -63 60 -115 61 -21 0 -46 3 -55 5 -9 3 -27 0 -41 -5z"/>
<path d="M1095 1668 c-11 -18 -24 -39 -30 -48 -44 -68 -54 -90 -56 -125 -2
-22 0 -46 5 -53 5 -9 -6 -11 -44 -10 -48 2 -51 4 -45 25 8 34 -19 40 -59 12
-43 -29 -32 -53 12 -26 6 5 12 4 12 -1 0 -5 16 -17 35 -28 19 -10 35 -23 35
-28 0 -6 5 -5 12 2 7 7 19 12 28 12 28 0 49 36 47 79 -1 22 1 37 5 35 4 -3 11
13 14 35 5 34 9 39 23 31 14 -7 17 -4 17 15 0 13 -4 21 -8 19 -5 -3 -5 -10 -2
-16 4 -7 2 -8 -5 -4 -17 11 5 36 31 36 10 0 17 4 14 9 -3 5 1 15 10 22 12 10
20 10 34 1 16 -10 18 -9 15 8 -3 13 1 17 11 13 8 -3 14 -9 14 -14 0 -4 6 -6
14 -3 22 8 92 -14 139 -45 23 -16 55 -31 72 -35 34 -9 45 -21 45 -56 0 -20 2
-22 10 -10 7 11 10 11 10 2 0 -7 4 -11 9 -8 5 3 11 -1 14 -9 4 -9 1 -12 -10
-8 -13 5 -13 2 2 -27 9 -18 12 -29 7 -26 -6 4 -13 2 -17 -4 -3 -5 0 -10 7 -10
8 0 6 -5 -5 -11 -9 -6 -15 -14 -12 -19 3 -5 -6 -25 -20 -46 -14 -20 -25 -33
-25 -29 0 5 -13 -3 -28 -18 -31 -30 -39 -71 -17 -93 8 -9 15 -23 15 -31 0 -9
3 -13 7 -10 3 4 13 -2 20 -13 8 -11 18 -18 23 -15 4 3 11 -2 14 -11 4 -10 2
-13 -7 -8 -6 4 1 -7 16 -24 21 -22 27 -36 22 -51 -4 -13 -2 -21 5 -21 7 0 10
-7 6 -15 -3 -9 0 -15 8 -15 9 0 19 -33 31 -100 11 -55 22 -100 27 -100 4 0 7
-3 6 -7 -1 -5 1 -18 6 -31 5 -14 2 -33 -8 -52 -8 -17 -11 -28 -6 -25 4 3 11
-2 14 -11 5 -12 2 -15 -11 -10 -17 6 -17 5 0 -8 9 -7 17 -18 17 -23 0 -22 -68
-165 -85 -177 -13 -9 -16 -20 -11 -39 3 -14 1 -29 -4 -32 -6 -4 -10 -14 -8
-23 2 -16 -23 -73 -45 -100 -8 -10 -13 -10 -25 0 -13 11 -14 10 -5 -6 8 -15 7
-23 -3 -33 -8 -8 -18 -11 -24 -8 -5 3 -10 -1 -10 -9 0 -10 -6 -13 -15 -10 -10
4 -13 2 -10 -7 3 -9 -10 -20 -40 -32 -25 -11 -45 -23 -45 -28 0 -5 -23 -20
-51 -35 l-52 -26 6 24 6 23 -18 -24 c-10 -14 -27 -26 -37 -27 -11 -1 -55 -12
-99 -23 -62 -16 -98 -20 -160 -15 -106 7 -147 13 -141 22 3 5 -21 8 -52 9 -41
1 -59 6 -69 19 -10 13 -13 14 -13 3 0 -12 -2 -12 -9 0 -7 11 -9 11 -14 0 -4
-9 -6 -7 -7 6 -1 20 -1 20 -10 0 -5 -11 -9 -14 -9 -7 -1 7 -5 11 -10 7 -18
-11 -157 33 -230 74 -24 12 -26 34 -4 27 26 -8 47 16 38 44 -5 15 -2 20 10 20
12 0 15 -5 10 -17 -5 -14 -3 -15 6 -6 15 15 1 36 -21 30 -19 -5 -35 17 -25 33
3 5 -4 15 -16 24 -12 8 -18 19 -14 25 3 6 1 11 -4 11 -12 0 -14 -29 -5 -54 3
-9 10 -13 15 -10 5 3 6 10 3 16 -4 7 -2 8 5 4 9 -6 9 -11 1 -22 -9 -10 -7 -19
9 -40 27 -35 26 -44 -3 -44 -30 0 -39 13 -42 59 -2 39 -54 191 -66 191 -3 0
-8 -10 -10 -22 -3 -17 -9 -7 -22 35 -10 31 -22 55 -27 51 -6 -4 -6 -10 0 -18
6 -7 12 -21 14 -32 5 -29 26 -64 38 -61 12 2 71 -142 63 -155 -3 -4 -9 -6 -13
-4 -4 3 -8 -1 -8 -9 0 -8 3 -13 6 -12 7 2 11 -7 11 -23 0 -23 -83 5 -86 29 -1
6 -2 19 -3 29 -2 15 -3 14 -11 -3 -7 -17 -9 -17 -9 -2 -1 9 -6 16 -12 15 -6
-2 -13 6 -14 17 -1 11 -10 37 -19 57 -12 28 -13 37 -3 41 8 2 3 17 -16 46 -33
50 -53 111 -63 196 -11 102 -25 99 -21 -5 2 -73 8 -105 25 -137 12 -24 24 -56
26 -73 2 -16 10 -40 18 -52 8 -13 18 -40 22 -60 6 -35 56 -98 77 -98 5 0 9 -7
9 -15 0 -8 6 -15 13 -15 7 0 30 -9 50 -19 77 -39 246 -90 380 -115 139 -26
340 -36 381 -20 13 5 17 4 12 -4 -10 -17 57 -5 139 24 85 31 107 42 213 112
84 56 132 105 132 135 0 10 5 17 10 17 6 0 10 6 10 14 0 7 7 19 15 26 8 7 15
28 15 47 0 30 14 69 65 178 21 44 18 192 -7 315 -29 148 -69 237 -140 314 -51
54 -57 66 -33 66 8 0 15 7 15 15 0 8 9 19 19 24 10 6 33 32 51 58 26 40 31 55
27 91 -2 23 -1 42 3 42 16 0 -3 42 -26 57 -13 8 -24 23 -24 32 0 18 -58 51
-90 51 -21 0 -39 20 -18 21 7 0 -14 11 -47 24 -47 19 -79 24 -150 24 l-90 1
-20 -32z"/>
<path d="M1218 1613 c-10 -3 -18 -9 -18 -14 0 -6 -4 -7 -10 -4 -5 3 -10 1 -10
-5 0 -6 -5 -8 -10 -5 -6 4 -9 1 -8 -7 2 -7 -2 -12 -9 -11 -7 2 -10 -3 -7 -11
3 -8 0 -17 -7 -22 -8 -4 -10 -3 -5 4 4 7 3 12 -3 12 -15 0 -23 -18 -11 -25 17
-10 11 -27 -7 -21 -16 5 -18 -1 -18 -45 0 -33 -5 -53 -15 -59 -8 -5 -10 -10
-5 -10 20 0 32 16 39 51 10 55 58 123 102 144 37 17 41 17 84 1 25 -10 50 -18
57 -18 7 -1 10 -5 7 -10 -3 -4 1 -8 10 -8 8 0 23 -12 34 -27 l20 -27 -2 41 c0
23 -5 39 -9 36 -5 -3 -6 -12 -2 -21 3 -8 -6 -4 -20 11 -16 16 -33 23 -42 20
-11 -4 -14 -2 -9 5 5 8 0 12 -13 12 -11 0 -22 4 -25 8 -6 9 -60 12 -88 5z"/>
<path d="M1203 1550 c-19 -11 -40 -37 -51 -62 -23 -51 -37 -117 -22 -102 5 5
11 18 13 29 1 11 7 27 12 35 5 8 10 22 12 30 1 8 11 22 22 31 11 9 18 19 15
22 -3 2 3 7 12 11 12 5 15 2 10 -9 -3 -9 -2 -13 4 -10 6 3 10 14 11 23 0 11 2
13 6 4 3 -9 9 -10 17 -3 13 11 56 4 56 -10 0 -5 6 -9 13 -9 24 0 65 -53 62
-80 -4 -36 -4 -37 -15 -20 -6 9 -10 10 -10 3 0 -6 5 -15 10 -18 6 -4 8 -11 4
-16 -3 -6 -12 -5 -21 3 -15 12 -15 11 -3 -9 11 -17 17 -19 28 -11 7 6 11 17 8
24 -3 7 -1 16 4 19 20 13 10 65 -17 93 -52 51 -127 65 -180 32z"/>
<path d="M343 1545 c-18 -8 -33 -11 -33 -7 0 4 -4 2 -8 -4 -12 -18 -70 -34
-76 -21 -2 7 -5 4 -5 -5 -1 -11 -6 -15 -15 -12 -8 3 -28 -8 -45 -25 -30 -29
-41 -49 -21 -36 5 3 7 0 4 -9 -3 -8 1 -25 9 -38 8 -13 13 -31 12 -40 -2 -9 2
-15 9 -12 6 2 20 -11 30 -31 11 -19 25 -35 33 -35 9 0 11 -5 7 -12 -4 -7 -4
-10 1 -6 4 4 20 -1 34 -12 27 -18 27 -18 39 1 18 28 15 45 -13 67 -13 11 -21
23 -17 27 4 4 0 6 -8 3 -19 -6 -50 22 -50 45 0 10 -5 15 -10 12 -6 -4 -10 5
-8 24 2 22 7 31 20 31 10 0 18 4 18 8 0 16 45 29 77 22 18 -4 30 -3 27 1 -13
22 17 6 35 -18 l21 -28 -13 35 c-13 32 -17 35 -53 33 -21 -1 -65 -15 -97 -30
-62 -29 -63 -32 -42 -100 4 -13 3 -23 -1 -23 -12 0 -44 58 -44 78 0 21 56 54
147 86 62 23 69 24 85 9 10 -9 18 -22 18 -30 0 -7 7 -13 15 -13 20 0 19 29 -1
37 -8 3 -13 12 -9 20 3 11 1 13 -10 9 -8 -3 -15 -1 -15 4 0 13 -8 12 -47 -5z
m-91 -225 c16 -16 36 -30 44 -30 8 0 14 -9 14 -20 0 -11 -6 -20 -12 -20 -18 0
-88 68 -88 86 0 21 8 18 42 -16z"/>
<path d="M1415 1403 c-4 -21 -12 -41 -18 -45 -19 -12 -35 -9 -40 7 -4 11 -4
10 -3 -2 1 -14 10 -18 38 -18 20 0 34 4 31 9 -3 4 1 12 8 17 10 6 10 9 2 9 -9
0 -11 10 -6 30 3 17 3 30 0 30 -2 0 -8 -17 -12 -37z"/>
<path d="M613 1277 c-12 -5 -24 -20 -28 -34 -3 -14 -10 -21 -17 -17 -7 4 -8 3
-4 -5 4 -6 2 -19 -6 -28 -7 -9 -8 -14 -2 -10 10 6 54 -75 54 -100 0 -4 -20 -7
-45 -5 -59 5 -136 -20 -172 -56 -36 -37 -73 -111 -73 -148 0 -48 41 -118 83
-143 50 -29 150 -39 198 -18 l35 14 -4 -31 c-3 -17 -8 -35 -12 -41 -4 -5 -9
-62 -9 -126 -2 -110 11 -200 31 -226 5 -7 7 -16 4 -22 -3 -5 0 -12 6 -14 10
-4 10 -6 1 -6 -7 -1 -1 -13 13 -28 14 -15 23 -32 20 -39 -3 -7 2 -10 14 -7 11
3 32 -4 47 -15 22 -15 47 -20 115 -21 75 -2 92 1 135 24 40 21 104 75 89 75
-2 0 2 21 10 47 18 59 17 180 -1 258 -27 117 -36 150 -43 155 -13 9 -44 71
-39 76 3 3 13 -8 23 -25 20 -33 38 -42 27 -13 -6 15 -5 15 10 3 9 -7 17 -9 17
-3 0 5 11 12 25 14 14 3 25 2 25 -3 0 -4 14 -4 30 1 17 5 30 7 30 5 0 -4 33
26 81 72 15 15 28 21 30 14 2 -6 4 17 4 52 -1 90 -44 197 -81 197 -7 0 -17 6
-21 14 -10 18 -103 35 -131 25 -13 -5 -22 -4 -22 1 0 6 -7 10 -15 10 -8 0 -15
-4 -15 -9 0 -4 -17 -34 -37 -65 -45 -68 -63 -71 -115 -15 -36 39 -38 44 -39
112 -1 62 -2 67 -10 37 -22 -92 30 -210 93 -210 26 0 26 -1 16 -31 -6 -17 -8
-48 -5 -70 3 -21 1 -39 -4 -39 -5 0 -9 5 -9 11 0 5 -4 8 -9 5 -5 -4 -11 -1
-13 5 -10 30 -158 16 -158 -16 0 -11 7 -12 32 -4 69 19 114 14 147 -17 37 -34
38 -43 10 -78 -20 -26 -49 -35 -49 -16 0 6 8 10 18 8 10 -2 16 2 14 11 -1 7 3
19 9 27 9 11 8 19 -6 34 -22 24 -29 25 -50 4 -12 -13 -19 -14 -30 -4 -11 9
-15 9 -15 1 0 -16 -65 -13 -80 4 -6 8 -13 40 -15 72 -1 32 -7 75 -13 95 -5 21
-7 37 -3 37 20 -3 51 16 51 30 0 10 3 21 7 25 28 27 29 186 2 186 -5 0 -9 -5
-9 -11 0 -5 -4 -7 -10 -4 -28 17 -109 24 -137 12z m92 -31 c0 0 6 -10 13 -21
6 -11 17 -31 22 -44 6 -13 13 -21 16 -18 3 3 0 19 -8 34 -12 24 -12 31 -2 41
7 7 15 12 17 12 12 0 13 -57 2 -98 -7 -26 -14 -39 -14 -29 -1 9 -5 17 -10 17
-5 0 -14 15 -21 34 -6 18 -19 41 -29 50 -18 16 -20 16 -42 -6 -13 -13 -26 -32
-28 -43 -3 -20 -3 -20 18 -1 12 11 21 14 21 8 0 -7 -4 -12 -10 -12 -5 0 -10
-4 -10 -10 0 -5 7 -10 15 -10 8 0 15 9 15 20 0 13 5 18 15 14 8 -4 15 -12 15
-20 0 -8 4 -14 10 -14 5 0 7 -8 4 -17 -5 -14 -4 -15 4 -4 13 18 21 2 18 -34
-3 -27 -28 -55 -49 -55 -18 0 -67 63 -78 100 -14 47 -2 90 32 107 18 10 64 9
64 -1z m468 -141 c88 -17 151 -179 96 -249 -11 -14 -26 -26 -34 -26 -7 0 -15
-7 -19 -15 -3 -8 -14 -15 -26 -15 -11 0 -40 -5 -64 -12 -36 -9 -50 -9 -68 1
-13 7 -33 14 -43 15 -14 2 -20 11 -18 28 1 18 -3 25 -15 24 -14 -1 -17 9 -17
64 0 55 5 72 30 110 16 25 37 50 45 55 25 17 74 34 87 30 6 -2 27 -7 46 -10z
m-532 -68 c9 -7 28 -30 43 -51 28 -42 36 -112 14 -134 -7 -7 -8 -12 -3 -12 4
0 0 -9 -10 -20 -10 -11 -24 -20 -32 -20 -7 0 -12 -3 -12 -7 6 -38 -39 -63
-114 -63 -67 0 -114 16 -144 48 -19 21 -23 36 -23 94 0 48 5 74 15 84 8 8 18
21 22 27 5 7 24 25 43 40 31 24 44 27 110 27 44 -1 82 -6 91 -13z m77 -278
c-13 -9 31 -39 57 -39 14 0 27 -14 43 -47 30 -64 28 -85 -10 -130 -18 -21 -37
-44 -43 -51 -5 -7 -19 -23 -30 -35 -41 -44 -69 -122 -59 -161 10 -40 24 -27
49 44 47 137 96 210 140 210 12 0 46 -25 82 -59 56 -55 60 -62 61 -106 2 -65
10 -85 34 -85 19 0 20 5 16 48 -3 28 -15 62 -31 86 -33 47 -98 116 -112 116
-5 1 -20 9 -32 19 -19 16 -23 29 -23 75 0 36 -4 56 -12 56 -20 0 1 13 26 15
33 4 86 45 86 67 0 34 18 18 48 -44 63 -127 86 -319 57 -455 -8 -34 -50 -78
-90 -93 -50 -19 -139 -20 -197 -2 -87 27 -110 62 -132 203 -17 107 -17 121 -3
224 17 115 42 188 58 164 7 -11 9 -9 10 6 0 20 0 20 8 0 5 -11 4 -23 -1 -26z
m144 32 c10 -1 -3 -34 -16 -43 -17 -12 -24 -10 -48 14 l-22 22 24 6 c14 4 32
6 40 4 8 -1 18 -3 22 -3z"/>
<path d="M1115 940 c6 -9 -1 -11 -47 -14 -19 -1 -63 -35 -55 -43 3 -2 16 2 29
10 12 9 34 17 48 19 24 3 40 15 40 31 0 4 -5 7 -11 7 -5 0 -7 -4 -4 -10z"/>
<path d="M485 912 c-23 -4 -72 -52 -54 -52 6 0 17 7 24 16 7 10 32 19 64 22
28 2 49 7 46 10 -7 8 -54 10 -80 4z"/>
<path d="M580 905 c0 -9 52 -56 57 -51 3 3 -6 16 -20 30 -25 25 -37 32 -37 21z"/>
<path d="M964 1262 c3 -5 -6 -14 -19 -20 -14 -7 -25 -18 -25 -26 0 -8 -9 -18
-20 -21 -13 -4 -20 -15 -20 -30 0 -13 -4 -27 -10 -30 -12 -7 -14 -35 -2 -35 4
0 20 23 37 50 28 49 55 65 55 35 0 -9 -11 -21 -25 -27 -14 -6 -25 -19 -25 -29
0 -9 -2 -23 -3 -31 -2 -7 -2 -10 0 -6 2 3 16 4 31 2 17 -3 22 -1 14 4 -9 6
-10 15 -3 33 5 13 10 18 10 10 1 -11 4 -11 14 3 7 9 17 17 22 16 22 -5 35 1
35 15 0 18 -31 35 -64 35 -14 0 -26 5 -26 10 0 16 56 11 89 -7 20 -12 31 -26
31 -40 0 -14 6 -23 16 -23 9 0 12 5 8 12 -5 7 -2 9 7 6 9 -4 15 1 15 12 0 9
-7 17 -16 16 -8 -1 -19 9 -24 20 -5 12 -18 27 -29 33 -11 8 -16 8 -12 2 9 -15
-1 -14 -37 5 -16 9 -28 11 -24 6z"/>
<path d="M149 840 c-9 -10 -22 -35 -29 -56 -6 -22 -14 -46 -17 -54 -4 -8 -8
-28 -9 -45 -3 -24 -2 -26 5 -10 7 16 10 11 16 -27 4 -26 13 -53 21 -59 18 -15
18 -10 -2 47 -10 31 -14 62 -10 87 8 48 32 107 44 107 5 0 15 -39 22 -86 7
-49 16 -81 20 -74 4 7 4 27 -1 44 -4 17 -11 51 -14 76 -8 57 -24 74 -46 50z"/>
<path d="M155 767 c-8 -18 1 -176 12 -203 3 -8 9 -14 14 -14 6 0 5 9 -1 21 -6
11 -9 30 -7 42 l4 22 2 -22 c0 -13 5 -23 9 -23 9 0 0 83 -16 155 -7 32 -11 36
-17 22z"/>
<path d="M193 543 c-15 -6 -17 -33 -3 -33 6 0 10 -11 10 -25 0 -14 5 -25 10
-25 6 0 8 10 5 23 -3 12 -7 32 -8 45 0 12 -1 22 -2 21 0 0 -6 -3 -12 -6z"/>
</g>
</svg>
